<svg width="1778" height="1088" viewBox="0 0 1778 1088" fill="none" xmlns="http://www.w3.org/2000/svg">
<g clip-path="url(#clip0)">
<path fill-rule="evenodd" clip-rule="evenodd" d="M690.725 627.977C727.795 635.546 766.751 610.006 803.283 619.342C840.285 628.798 869.94 653.751 894.002 679.925C917.541 705.53 923.007 739.319 940.334 768.422C960.702 802.632 994.912 830.237 1005.73 867.584C1017.99 909.937 1032.47 959.722 1006.58 997.167C980.585 1034.76 923.689 1049.68 874.097 1057.97C829.412 1065.45 785.84 1039.87 740.38 1041.66C703.448 1043.12 671.663 1065.4 634.765 1067.41C592.659 1069.71 550.711 1065.31 510.506 1054.2C462.507 1040.95 390.226 1038.34 376.826 996.189C361.425 947.741 448.505 911.146 449.055 860.892C449.518 818.649 384.494 793.066 379.51 751.044C374.42 708.135 390.028 661.745 421.471 628.348C452.982 594.877 502.048 568.069 551.838 568C604.115 567.928 639.836 617.586 690.725 627.977Z" fill="#FF6F3C"/>
<path fill-rule="evenodd" clip-rule="evenodd" d="M1353.78 41.4385C1429.41 41.5962 1512.38 46.1809 1567.63 90.6268C1621.01 133.565 1601.45 209.102 1632.82 265.892C1671.85 336.542 1808.84 389.313 1772.2 460.904C1733.89 535.775 1583.9 477.763 1502.65 520.228C1433.25 556.489 1433.01 664.331 1353.78 679.564C1276.4 694.444 1202.04 637.854 1147.21 588.567C1098.27 544.575 1100.67 477.989 1068.95 423.549C1028.57 354.256 920.66 303.576 936.711 227.301C952.405 152.662 1060.9 124.615 1139.17 89.7333C1206.47 59.7392 1277.98 41.2804 1353.78 41.4385Z" fill="#FFBF3D"/>
<path fill-rule="evenodd" clip-rule="evenodd" d="M360.245 29.798C423.134 27.1558 488.883 0.0731745 546.458 20.685C603.927 41.259 640.722 90.5885 662.834 138.125C683.216 181.942 658.379 230.326 665.579 276.771C671.976 318.04 698.991 354.772 702.845 396.247C707.535 446.732 740.847 515.665 690.581 545.897C632.913 580.581 549.254 521.518 478.378 531.252C431.938 537.629 403.705 576.583 360.245 591.261C302.806 610.661 240.467 649.621 182.554 631.164C126.16 613.191 112.106 552.051 92.1265 505.811C75.4552 467.228 86.7959 425.407 76.3718 385.417C66.1491 346.199 27.2842 312.363 31.2882 272.415C35.3641 231.752 75.2661 200.667 98.5199 164.453C126.526 120.839 131.831 62.3422 183.13 35.9494C233.606 9.97973 300.482 32.3088 360.245 29.798Z" fill="#FF923D"/>
</g>
<defs>
<clipPath id="clip0">
<rect width="1778" height="1088" fill="white"/>
</clipPath>
</defs>
</svg>
